<?xml version="1.0" encoding="UTF-8" standalone="no"?>
<svg
   xmlns:dc="http://purl.org/dc/elements/1.1/"
   xmlns:cc="http://creativecommons.org/ns#"
   xmlns:rdf="http://www.w3.org/1999/02/22-rdf-syntax-ns#"
   xmlns:svg="http://www.w3.org/2000/svg"
   xmlns="http://www.w3.org/2000/svg"
   xmlns:xlink="http://www.w3.org/1999/xlink"
   xmlns:sodipodi="http://sodipodi.sourceforge.net/DTD/sodipodi-0.dtd"
   xmlns:inkscape="http://www.inkscape.org/namespaces/inkscape"
   width="40.032001"
   height="40.032001"
   viewBox="0 0 10.5918 10.591801"
   version="1.1"
   id="svg8"
   inkscape:version="1.0.2 (e86c870879, 2021-01-15, custom)"
   sodipodi:docname="instagram.svg">
  <defs
     id="defs2">
    <clipPath
       clipPathUnits="userSpaceOnUse"
       id="clipPath869">
      <rect
         style="fill:#0000ff;fill-rule:evenodd;stroke-width:0.281072"
         id="rect871"
         width="82.020836"
         height="82.020836"
         x="5.6343684"
         y="7.9685922"
         transform="rotate(90)" />
    </clipPath>
    <clipPath
       clipPathUnits="userSpaceOnUse"
       id="clipPath869-3">
      <rect
         style="fill:#0000ff;fill-rule:evenodd;stroke-width:0.281072"
         id="rect871-6"
         width="82.020836"
         height="82.020836"
         x="5.6343684"
         y="7.9685922"
         transform="rotate(90)" />
    </clipPath>
    <clipPath
       clipPathUnits="userSpaceOnUse"
       id="clipPath1266">
      <rect
         style="fill:#0000ff;fill-rule:evenodd;stroke-width:1.51566"
         id="rect1268"
         width="101.82901"
         height="108.93532"
         x="5.6343689"
         y="7.9685922" />
    </clipPath>
    <clipPath
       clipPathUnits="userSpaceOnUse"
       id="clipPath1716">
      <rect
         style="fill:#ea7dde;fill-opacity:1;fill-rule:evenodd;stroke-width:0.233767"
         id="rect1718"
         width="72.467812"
         height="72.467812"
         x="114.22424"
         y="-219.02588"
         ry="1.9442371e-07"
         transform="rotate(90)" />
    </clipPath>
    <clipPath
       clipPathUnits="userSpaceOnUse"
       id="clipPath1934">
      <rect
         style="fill:#eae5de;fill-opacity:1;fill-rule:evenodd;stroke-width:0.233767"
         id="rect1936"
         width="72.467812"
         height="72.467812"
         x="114.22424"
         y="-219.02588"
         ry="36.233906"
         transform="rotate(90)" />
    </clipPath>
    <clipPath
       clipPathUnits="userSpaceOnUse"
       id="clipPath2016">
      <rect
         style="fill:#303030;fill-opacity:1;fill-rule:evenodd;stroke-width:0.336455"
         id="rect2018"
         width="6.3499999"
         height="6.1933665"
         x="75.159622"
         y="-59.871925"
         ry="3.0966835" />
    </clipPath>
    <clipPath
       clipPathUnits="userSpaceOnUse"
       id="clipPath3911">
      <rect
         style="fill:#eae5de;fill-opacity:1;fill-rule:evenodd;stroke-width:0.416126"
         id="rect3913"
         width="209.99998"
         height="297"
         x="0"
         y="0" />
    </clipPath>
    <clipPath
       clipPathUnits="userSpaceOnUse"
       id="clipPath3915">
      <rect
         style="fill:#eae5de;fill-opacity:1;fill-rule:evenodd;stroke-width:0.416126"
         id="rect3917"
         width="209.99998"
         height="297"
         x="0"
         y="0" />
    </clipPath>
    <clipPath
       clipPathUnits="userSpaceOnUse"
       id="clipPath3919">
      <rect
         style="fill:#eae5de;fill-opacity:1;fill-rule:evenodd;stroke-width:0.416126"
         id="rect3921"
         width="209.99998"
         height="297"
         x="0"
         y="0" />
    </clipPath>
    <clipPath
       clipPathUnits="userSpaceOnUse"
       id="clipPath3923">
      <rect
         style="fill:#eae5de;fill-opacity:1;fill-rule:evenodd;stroke-width:0.416126"
         id="rect3925"
         width="209.99998"
         height="297"
         x="0"
         y="0" />
    </clipPath>
    <filter
       inkscape:collect="always"
       style="color-interpolation-filters:sRGB"
       id="filter967"
       x="-0.04332"
       width="1.08664"
       y="-0.04332"
       height="1.08664">
      <feGaussianBlur
         inkscape:collect="always"
         stdDeviation="0.16715053"
         id="feGaussianBlur969" />
    </filter>
    <filter
       inkscape:collect="always"
       style="color-interpolation-filters:sRGB"
       id="filter971"
       x="-0.04332"
       width="1.08664"
       y="-0.04332"
       height="1.08664">
      <feGaussianBlur
         inkscape:collect="always"
         stdDeviation="0.16715053"
         id="feGaussianBlur973" />
    </filter>
    <linearGradient
       id="b">
      <stop
         offset="0"
         stop-color="#3771c8"
         id="stop1013" />
      <stop
         stop-color="#3771c8"
         offset=".128"
         id="stop1015" />
      <stop
         offset="1"
         stop-color="#60f"
         stop-opacity="0"
         id="stop1017" />
    </linearGradient>
    <linearGradient
       id="a">
      <stop
         offset="0"
         stop-color="#fd5"
         id="stop1020" />
      <stop
         offset=".1"
         stop-color="#fd5"
         id="stop1022" />
      <stop
         offset=".5"
         stop-color="#ff543e"
         id="stop1024" />
      <stop
         offset="1"
         stop-color="#c837ab"
         id="stop1026" />
    </linearGradient>
    <radialGradient
       id="c"
       cx="158.429"
       cy="578.088"
       r="65"
       xlink:href="#a"
       gradientUnits="userSpaceOnUse"
       gradientTransform="matrix(0,-0.52439889,0.48786522,0,-254.34473,88.826965)"
       fx="158.429"
       fy="578.088" />
    <radialGradient
       id="d"
       cx="147.694"
       cy="473.455"
       r="65"
       xlink:href="#b"
       gradientUnits="userSpaceOnUse"
       gradientTransform="matrix(0.04602163,0.22984884,-0.94768461,0.18975388,454.67248,-152.60454)"
       fx="147.694"
       fy="473.455" />
    <clipPath
       clipPathUnits="userSpaceOnUse"
       id="clipPath1085">
      <path
         fill="#ffffff"
         d="m 35.744976,-26.797013 c -3.449109,0 -3.881967,0.01508 -5.236634,0.07673 -1.35202,0.06191 -2.274887,0.27596 -3.082395,0.59002 -0.83529,0.324379 -1.543843,0.758296 -2.249752,1.464469 -0.706437,0.705908 -1.140354,1.414462 -1.465791,2.249487 -0.314855,0.807773 -0.529167,1.730905 -0.590021,3.082396 -0.06059,1.354667 -0.07646,1.78779 -0.07646,5.236898 0,3.449109 0.01535,3.880644 0.07673,5.235311 0.06218,1.3520208 0.276225,2.2748875 0.590021,3.0823958 0.324644,0.8352896 0.758561,1.5438438 1.464734,2.2497521 0.705643,0.7064378 1.414196,1.1414127 2.248959,1.4657918 0.808035,0.3140605 1.731169,0.5281084 3.082925,0.5900209 1.354667,0.061648 1.787258,0.076729 5.236104,0.076729 3.449373,0 3.880909,-0.015081 5.235573,-0.076729 1.352023,-0.061913 2.275948,-0.2759604 3.083986,-0.5900209 0.835025,-0.3243791 1.542521,-0.759354 2.248164,-1.4657918 0.706438,-0.7059083 1.140354,-1.4144625 1.465792,-2.2494875 0.312208,-0.8077729 0.526521,-1.7309042 0.590021,-3.0823959 0.06085,-1.3546665 0.07673,-1.7864665 0.07673,-5.2355755 0,-3.449108 -0.01588,-3.881966 -0.07673,-5.236633 -0.0635,-1.352021 -0.277813,-2.274888 -0.590021,-3.082396 -0.325438,-0.83529 -0.759354,-1.543844 -1.465792,-2.249752 -0.706437,-0.706438 -1.412875,-1.140354 -2.248958,-1.464469 -0.809625,-0.31406 -1.733021,-0.528107 -3.085042,-0.59002 -1.354666,-0.06165 -1.785937,-0.07673 -5.236104,-0.07673 z m -1.139296,2.288646 c 0.338138,-5.29e-4 0.715433,0 1.139296,0 3.3909,0 3.792802,0.01217 5.131858,0.07303 1.23825,0.05662 1.910292,0.263525 2.357967,0.437356 0.592669,0.230188 1.015206,0.505354 1.459444,0.949854 0.4445,0.4445 0.719664,0.867834 0.950381,1.460501 0.173831,0.447145 0.381,1.119187 0.437356,2.357437 0.06085,1.338792 0.07408,1.740958 0.07408,5.130271 0,3.389313 -0.01323,3.791479 -0.07408,5.1302709 -0.05662,1.23825 -0.263525,1.9102917 -0.437356,2.3574375 -0.230185,0.5926667 -0.505881,1.0146774 -0.950381,1.4589128 -0.4445,0.4445 -0.866513,0.7196667 -1.459444,0.9498542 -0.447146,0.174625 -1.119717,0.381 -2.357967,0.4376206 -1.338789,0.060854 -1.740958,0.074083 -5.131858,0.074083 -3.391165,0 -3.793067,-0.013229 -5.131859,-0.074083 -1.23825,-0.05715 -1.910291,-0.2640542 -2.358231,-0.4378852 -0.592666,-0.2301875 -1.016,-0.5053544 -1.4605,-0.9498544 -0.444499,-0.4445 -0.719666,-0.8667748 -0.950382,-1.4597063 -0.173832,-0.4471458 -0.381,-1.1191875 -0.437357,-2.3574375 -0.06085,-1.3387916 -0.07303,-1.7409586 -0.07303,-5.1323876 0,-3.391429 0.01217,-3.791479 0.07303,-5.130271 0.05662,-1.23825 0.263525,-1.910292 0.437357,-2.357967 0.230187,-0.592666 0.505883,-1.016 0.950382,-1.4605 0.4445,-0.4445 0.867834,-0.719666 1.4605,-0.950383 0.447675,-0.174625 1.119981,-0.381 2.358231,-0.437885 1.171575,-0.05292 1.6256,-0.06879 3.992563,-0.07144 z m 7.91845,2.108729 c -0.841375,0 -1.524,0.681831 -1.524,1.523471 0,0.841375 0.682625,1.524 1.524,1.524 0.841375,0 1.524,-0.682625 1.524,-1.524 0,-0.841375 -0.682625,-1.524 -1.524,-1.524 z m -6.779154,1.780646 c -3.601773,0 -6.521979,2.920206 -6.521979,6.521979 0,3.601773 2.920206,6.520657 6.521979,6.520657 3.601773,0 6.520921,-2.918884 6.520921,-6.520657 0,-3.601773 -2.919413,-6.521979 -6.521186,-6.521979 z m 0,2.288646 c 2.337858,0 4.233333,1.89521 4.233333,4.233333 0,2.337859 -1.895475,4.2333338 -4.233333,4.2333338 -2.338123,0 -4.233334,-1.8954748 -4.233334,-4.2333338 0,-2.338123 1.895211,-4.233333 4.233334,-4.233333 z"
         id="path1087"
         style="stroke-width:0.264583" />
    </clipPath>
  </defs>
  <sodipodi:namedview
     id="base"
     pagecolor="#ffffff"
     bordercolor="#666666"
     borderopacity="1.0"
     inkscape:pageopacity="0.0"
     inkscape:pageshadow="2"
     inkscape:zoom="7.9195959"
     inkscape:cx="23.682696"
     inkscape:cy="24.394113"
     inkscape:document-units="px"
     inkscape:current-layer="layer1"
     inkscape:document-rotation="0"
     showgrid="false"
     units="px"
     inkscape:window-width="1440"
     inkscape:window-height="847"
     inkscape:window-x="1352"
     inkscape:window-y="-8"
     inkscape:window-maximized="1" />
  <metadata
     id="metadata5">
    <rdf:RDF>
      <cc:Work
         rdf:about="">
        <dc:format>image/svg+xml</dc:format>
        <dc:type
           rdf:resource="http://purl.org/dc/dcmitype/StillImage" />
        <dc:title></dc:title>
      </cc:Work>
    </rdf:RDF>
  </metadata>
  <g
     inkscape:label="Capa 1"
     inkscape:groupmode="layer"
     id="layer1">
    <g
       id="g1099">
      <circle
         style="fill:#000000;fill-opacity:0.220884;fill-rule:evenodd;stroke-width:0.0542446;filter:url(#filter967)"
         id="path24-8"
         cx="-76.889717"
         cy="102.71554"
         r="4.6302085"
         transform="matrix(0.99998952,0,0,1.0000004,82.44939,-97.155043)" />
      <circle
         style="fill:#ffffff;fill-opacity:0.22;fill-rule:evenodd;stroke-width:0.0542446;filter:url(#filter971)"
         id="path24-2"
         cx="-77.418884"
         cy="102.18637"
         r="4.6302085"
         transform="matrix(0.99998952,0,0,1.0000004,82.44939,-97.155043)" />
      <ellipse
         style="fill:#f9f5f4;fill-opacity:1;fill-rule:evenodd;stroke-width:0.0542443"
         id="path24"
         cx="5.2959323"
         cy="5.295857"
         rx="4.6301599"
         ry="4.6302104" />
      <g
         id="g1083"
         clip-path="url(#clipPath1085)"
         transform="matrix(0.20358417,0,0,0.20358417,-1.980938,8.1657856)">
        <path
           fill="url(#c)"
           d="m 35.752915,-31.29493 c -7.181321,0 -9.281584,0.0074 -9.689836,0.04128 -1.473729,0.122502 -2.390775,0.354542 -3.389842,0.851958 -0.769937,0.382323 -1.377156,0.8255 -1.976437,1.446742 -1.091407,1.132946 -1.752865,2.526771 -1.992313,4.183592 -0.116417,0.804333 -0.150283,0.968375 -0.157162,5.076825 -0.0026,1.369483 0,3.171825 0,5.589323 0,7.1755002 0.0079,9.2736461 0.04233,9.6811044 0.119062,1.4340417 0.343958,2.3362709 0.820208,3.3231668 0.910167,1.88912503 2.64848,3.3072917 4.696355,3.8364584 0.709083,0.1825625 1.49225,0.2831042 2.497666,0.3307292 0.425979,0.018521 4.767792,0.03175 9.112251,0.03175 4.344458,0 8.688916,-0.00529 9.104312,-0.026458 1.164167,-0.054769 1.840177,-0.1455208 2.587625,-0.3386666 2.061105,-0.5318125 3.767667,-1.92881257 4.696355,-3.844396 0.466989,-0.9630833 0.703791,-1.8997083 0.810948,-3.258873 0.02328,-0.2963333 0.03307,-5.020998 0.03307,-9.7393132 0,-4.719108 -0.01058,-9.435042 -0.03387,-9.731375 -0.108479,-1.381125 -0.345281,-2.309813 -0.827352,-3.291417 -0.395552,-0.803539 -0.834761,-1.403615 -1.472407,-2.017183 -1.137973,-1.086909 -2.529681,-1.748367 -4.188089,-1.98755 -0.80354,-0.116152 -0.963613,-0.150548 -5.075238,-0.157692 z"
           id="path1033"
           style="fill:url(#c);stroke-width:0.264583" />
        <path
           fill="url(#d)"
           d="m 35.752915,-31.29493 c -7.181321,0 -9.281584,0.0074 -9.689836,0.04128 -1.473729,0.122502 -2.390775,0.354542 -3.389842,0.851958 -0.769937,0.382323 -1.377156,0.8255 -1.976437,1.446742 -1.091407,1.132946 -1.752865,2.526771 -1.992313,4.183592 -0.116417,0.804333 -0.150283,0.968375 -0.157162,5.076825 -0.0026,1.369483 0,3.171825 0,5.589323 0,7.1755002 0.0079,9.2736461 0.04233,9.6811044 0.119062,1.4340417 0.343958,2.3362709 0.820208,3.3231668 0.910167,1.88912503 2.64848,3.3072917 4.696355,3.8364584 0.709083,0.1825625 1.49225,0.2831042 2.497666,0.3307292 0.425979,0.018521 4.767792,0.03175 9.112251,0.03175 4.344458,0 8.688916,-0.00529 9.104312,-0.026458 1.164167,-0.054769 1.840177,-0.1455208 2.587625,-0.3386666 2.061105,-0.5318125 3.767667,-1.92881257 4.696355,-3.844396 0.466989,-0.9630833 0.703791,-1.8997083 0.810948,-3.258873 0.02328,-0.2963333 0.03307,-5.020998 0.03307,-9.7393132 0,-4.719108 -0.01058,-9.435042 -0.03387,-9.731375 -0.108479,-1.381125 -0.345281,-2.309813 -0.827352,-3.291417 -0.395552,-0.803539 -0.834761,-1.403615 -1.472407,-2.017183 -1.137973,-1.086909 -2.529681,-1.748367 -4.188089,-1.98755 -0.80354,-0.116152 -0.963613,-0.150548 -5.075238,-0.157692 z"
           id="path1035"
           style="fill:url(#d);stroke-width:0.264583" />
      </g>
    </g>
  </g>
  <style
     type="text/css"
     id="style3">
	.st0{fill:#FF0000;}
	.st1{fill:#FFFFFF;}
	.st2{fill:#282828;}
</style>
</svg>
